<?xml version="1.0" standalone="no"?>
<!DOCTYPE svg PUBLIC "-//W3C//DTD SVG 20010904//EN"
 "http://www.w3.org/TR/2001/REC-SVG-20010904/DTD/svg10.dtd">
<svg version="1.0" xmlns="http://www.w3.org/2000/svg"
 width="2090.000000pt" height="1334.000000pt" viewBox="0 0 2090.000000 1334.000000"
 preserveAspectRatio="xMidYMid meet">

<g transform="translate(0.000000,1334.000000) scale(0.100000,-0.100000)"
fill="#000000" stroke="none">
<path d="M13858 13301 c-137 -44 -325 -192 -673 -532 -204 -199 -363 -329
-580 -475 -410 -276 -839 -474 -1031 -474 -165 0 -966 -211 -2134 -560 -546
-164 -962 -315 -1425 -520 -392 -173 -1075 -555 -1549 -867 -257 -169 -361
-249 -481 -368 -108 -108 -377 -336 -600 -509 -645 -501 -1329 -801 -2130
-936 -527 -89 -995 -108 -1991 -80 l-431 12 -238 -152 c-287 -185 -378 -251
-470 -345 -122 -123 -127 -160 -51 -320 54 -114 111 -206 197 -321 215 -287
431 -395 1259 -633 258 -74 422 -144 479 -205 22 -23 23 -29 13 -63 -37 -119
-262 -324 -505 -459 -237 -131 -328 -215 -402 -369 -66 -137 -79 -203 -79
-385 0 -183 15 -270 80 -471 137 -417 445 -880 869 -1305 274 -275 481 -422
679 -483 228 -70 379 41 422 311 36 223 46 265 80 335 43 87 119 163 201 201
76 34 207 42 317 18 90 -21 228 -86 315 -151 188 -139 359 -387 424 -615 9
-30 28 -120 42 -200 94 -525 239 -730 710 -1000 523 -301 1187 -505 2624 -805
2032 -424 3192 -570 4401 -552 751 11 1370 81 2060 233 517 114 818 205 1024
311 120 62 233 170 264 255 56 150 49 283 -30 588 -28 107 -59 233 -69 280
-23 105 -24 254 -3 358 26 128 160 518 225 651 194 403 441 601 1074 861 322
132 505 240 645 380 194 193 230 391 115 626 -40 81 -89 151 -203 287 -100
119 -225 294 -265 372 -71 139 -35 222 248 575 234 293 298 367 337 389 110
64 399 47 606 -34 75 -30 120 -31 203 -5 76 24 191 106 209 150 11 27 9 36
-14 82 -14 29 -64 105 -111 168 -148 201 -164 247 -116 322 34 54 116 112 186
134 78 23 240 18 380 -12 66 -14 149 -28 185 -31 94 -7 94 -8 102 206 12 320
53 374 296 391 142 10 203 32 261 95 66 72 76 143 31 230 -28 54 -16 62 67 42
102 -24 153 -10 252 70 66 54 155 104 244 137 120 45 161 88 183 193 17 83 80
201 175 328 170 229 162 285 -56 376 -147 61 -269 158 -432 346 -95 108 -118
107 -248 -6 -69 -60 -136 -101 -167 -101 -26 0 -39 26 -48 95 -14 113 -105
232 -222 291 -70 35 -93 32 -142 -21 -73 -79 -137 -81 -209 -7 -54 56 -77 117
-93 255 -18 160 -44 237 -98 293 -36 37 -48 44 -82 44 -53 0 -92 -27 -149
-100 -92 -119 -169 -150 -225 -90 -41 44 -55 113 -44 224 25 260 -1 349 -125
428 -80 50 -125 34 -271 -96 -41 -37 -100 -79 -130 -94 -49 -24 -66 -27 -155
-27 -90 1 -108 4 -178 34 -101 43 -281 152 -330 199 -75 73 -87 133 -63 319
30 226 17 394 -45 577 -41 123 -84 199 -152 272 -76 82 -102 92 -175 69 -48
-15 -70 -30 -142 -104 -89 -89 -146 -181 -170 -271 -28 -104 -94 -189 -177
-227 -55 -24 -219 -24 -293 1 -272 92 -474 307 -545 580 -51 195 -122 323
-250 452 -143 144 -244 172 -413 115 -117 -39 -182 -72 -369 -187 -84 -52
-155 -94 -157 -94 -2 0 -6 134 -8 298 -6 331 -15 392 -80 515 -41 77 -213 258
-272 286 -52 26 -112 26 -188 2z m193 -186 c143 -178 182 -301 182 -570 0
-250 -49 -439 -148 -574 -34 -47 -57 -65 -118 -97 -42 -21 -79 -35 -83 -31 -4
4 3 30 16 58 20 43 22 52 10 59 -26 16 -122 -22 -355 -138 -441 -220 -466
-204 -80 54 226 150 355 252 355 280 0 46 -196 -32 -445 -176 -372 -216 -819
-421 -1175 -540 -189 -63 -275 -84 -330 -78 l-35 3 70 36 c80 41 130 61 485
193 469 175 568 224 803 400 195 146 334 263 479 404 136 133 184 192 174 217
-14 37 -75 8 -192 -90 -48 -41 -90 -72 -93 -70 -2 3 37 66 88 140 162 238 209
375 126 375 -27 0 -48 -22 -69 -74 -89 -215 -647 -691 -1106 -942 -368 -202
-1152 -447 -1758 -550 -153 -26 -222 -30 -222 -14 0 31 187 88 728 224 536
135 723 199 997 340 372 192 622 381 1240 940 198 179 363 324 368 323 4 -1
44 -47 88 -102z m1164 -869 c64 -29 128 -101 157 -175 48 -123 21 -366 -81
-728 -80 -281 -121 -544 -121 -773 0 -386 79 -587 359 -910 96 -111 393 -410
728 -730 225 -217 250 -266 203 -409 -75 -227 -307 -674 -372 -715 -24 -14
-66 2 -92 37 -14 19 -21 47 -24 92 -5 83 22 145 82 183 54 34 96 73 96 88 0 7
-21 30 -47 51 -82 65 -80 68 50 76 92 6 152 27 171 59 33 54 -91 76 -294 54
-222 -25 -234 -20 -104 39 149 68 200 122 137 146 -29 11 -54 8 -211 -22 -57
-12 -106 -18 -109 -16 -5 5 4 12 96 75 71 48 80 64 61 99 -20 35 -168 166
-256 226 l-69 47 -165 15 c-188 16 -203 20 -298 70 -134 70 -266 200 -328 323
-30 60 -35 112 -19 199 10 55 -6 62 -86 38 -80 -25 -113 -14 -117 36 -4 43 30
89 78 109 56 23 34 33 -57 24 -195 -18 -263 12 -202 90 30 38 78 66 199 115
150 60 222 113 192 143 -17 17 -135 -4 -286 -52 -169 -54 -240 -70 -322 -70
-80 0 -104 13 -85 48 29 54 125 108 363 203 267 106 418 190 418 232 0 41 -58
25 -625 -173 -275 -96 -772 -190 -871 -166 l-29 8 23 18 c31 25 215 96 572
220 543 189 769 300 758 372 -2 19 -8 22 -33 20 -49 -5 -189 -56 -376 -135
-503 -215 -1116 -366 -1330 -328 -63 11 -167 67 -152 82 4 4 60 12 123 18 226
20 592 132 1340 412 350 132 464 186 497 235 14 22 14 32 3 78 -10 41 -10 61
-1 88 13 39 67 94 126 128 101 59 143 110 91 110 -35 0 -264 -81 -501 -177
-115 -47 -282 -114 -370 -150 -692 -280 -1524 -521 -2200 -638 -434 -75 -754
-146 -1145 -255 -259 -71 -335 -95 -760 -235 -531 -175 -825 -263 -837 -251
-11 10 181 93 407 176 127 47 264 109 295 134 17 13 18 17 5 25 -48 32 -448
-99 -884 -288 -289 -126 -1210 -548 -1364 -625 -233 -117 -432 -243 -549 -346
-138 -124 -301 -217 -508 -290 -159 -56 -297 -116 -425 -183 -212 -112 -703
-281 -1355 -467 -505 -143 -835 -220 -1135 -264 -389 -56 -706 -80 -1090 -80
-336 -1 -409 6 -535 49 -90 30 -232 42 -587 50 -279 5 -415 16 -466 37 l-27
11 31 8 c70 20 305 29 984 39 1293 18 1454 31 1785 137 224 72 299 86 470 88
131 2 165 6 272 34 168 42 347 103 609 204 270 105 543 199 644 222 121 28
199 55 295 102 208 103 421 275 444 358 14 50 14 81 1 106 -25 45 -104 13
-331 -136 -284 -185 -1310 -652 -1722 -784 -188 -60 -164 -31 75 90 87 44 230
113 317 153 354 163 805 433 1366 817 336 231 611 384 685 382 19 0 49 -2 65
-3 67 -6 85 0 138 48 95 86 403 263 882 507 483 245 979 429 1540 569 328 82
572 116 825 116 209 0 335 18 427 62 62 29 79 32 184 36 76 3 160 -1 240 -12
146 -20 234 -24 246 -13 4 5 -17 30 -47 57 -30 27 -52 52 -47 56 4 4 63 11
130 15 136 8 241 21 396 50 115 21 178 24 201 9 13 -8 12 -15 -9 -53 -15 -27
-21 -51 -17 -62 10 -27 81 -16 421 69 391 97 606 137 658 120 19 -6 18 -8 -14
-24 -94 -49 -774 -193 -1719 -365 -726 -132 -1064 -209 -1590 -361 -639 -185
-1136 -370 -1620 -604 -233 -112 -374 -170 -386 -157 -13 12 22 51 115 127
105 86 148 143 121 161 -32 20 -134 -14 -252 -86 -37 -22 -127 -77 -201 -122
-167 -102 -441 -250 -662 -359 -166 -83 -195 -94 -195 -74 0 10 61 87 157 199
36 40 62 75 59 78 -10 11 -189 -112 -230 -158 -118 -131 -197 -398 -135 -460
14 -14 27 -18 42 -13 46 14 298 134 727 346 245 121 517 254 605 295 769 359
1664 679 2425 866 249 61 426 98 797 162 846 148 1702 342 2428 550 769 220
1241 406 1393 548 45 43 43 67 -6 67 -50 0 -129 -28 -273 -95 -126 -59 -210
-85 -276 -85 -100 0 -46 58 137 147 233 112 450 275 450 337 0 68 -110 27
-335 -123 -55 -37 -107 -71 -115 -76 -19 -11 118 142 192 215 108 106 224 159
348 160 58 0 86 -5 125 -24z m1775 -541 c112 -58 157 -523 83 -853 -13 -56
-18 -121 -18 -237 1 -149 3 -166 28 -240 16 -44 47 -111 69 -150 55 -92 190
-226 303 -300 126 -82 247 -177 284 -224 106 -133 94 -243 -54 -526 -41 -77
-89 -183 -107 -235 -30 -87 -32 -105 -33 -220 0 -126 0 -126 38 -202 49 -101
123 -174 272 -273 207 -135 308 -257 291 -348 -20 -105 -202 -209 -527 -303
-114 -33 -127 -29 -99 27 27 52 96 85 195 95 92 8 152 34 161 68 8 33 -17 73
-52 82 -103 26 -330 -86 -370 -183 -21 -49 -17 -83 22 -205 44 -136 54 -217
30 -252 -27 -43 -22 -49 39 -43 34 3 84 19 128 41 40 20 87 36 105 36 43 0 94
-51 156 -160 109 -191 127 -220 205 -330 44 -63 120 -161 169 -217 106 -120
129 -151 137 -185 9 -34 -8 -39 -92 -27 -184 26 -341 119 -359 214 -4 24 -18
45 -42 65 -94 77 -453 157 -587 131 -27 -5 -58 -13 -69 -17 -17 -6 -17 -5 -5
17 7 13 40 58 75 100 71 88 95 143 72 166 -22 22 -70 -2 -153 -76 -39 -34 -77
-60 -85 -59 -9 2 -16 16 -18 33 -5 48 49 118 134 176 90 60 96 89 19 89 -13 0
-31 8 -40 17 -17 17 -17 27 0 143 12 77 -60 130 -175 130 -75 0 -128 -13 -257
-64 -139 -54 -220 -47 -269 23 -23 32 -4 49 64 56 150 15 237 47 424 158 76
45 136 82 135 83 -1 1 -47 -9 -102 -22 -479 -116 -714 -148 -766 -104 l-24 20
32 29 c35 32 145 72 253 91 176 31 352 95 383 141 42 59 2 76 -90 40 -70 -27
-253 -77 -368 -100 -198 -39 -215 -37 -171 29 60 91 154 159 241 174 81 15
157 86 207 192 35 74 32 100 -10 88 -55 -16 -93 -10 -113 16 -25 34 -46 119
-64 264 -33 256 -82 391 -179 489 -71 72 -156 119 -308 169 -68 22 -127 44
-131 48 -4 3 68 24 160 45 181 41 219 52 210 62 -4 3 -80 9 -169 14 -194 9
-280 23 -333 52 -54 30 -56 51 -8 75 50 26 157 42 290 43 59 1 149 4 198 8
l90 6 -175 28 c-376 61 -582 110 -616 148 -16 18 -15 20 22 36 36 16 80 18
499 17 l460 -1 -180 23 c-691 91 -918 138 -1012 210 -24 18 -33 33 -31 47 3
20 10 22 75 25 47 2 98 -4 150 -17 205 -52 453 -74 748 -64 127 4 200 9 185
14 -14 5 -219 47 -457 94 -238 47 -465 97 -505 111 -86 31 -222 101 -245 126
-21 23 -17 23 119 -6 62 -14 190 -34 283 -45 195 -24 718 -64 767 -59 20 2
-121 37 -354 87 -213 47 -386 87 -384 89 2 2 98 10 212 18 328 22 444 47 479
102 24 37 106 83 190 107 110 32 195 87 195 127 0 43 -111 15 -310 -77 -225
-105 -340 -133 -503 -122 -223 16 -541 132 -662 243 -40 36 -47 77 -16 94 64
34 250 -21 373 -110 102 -74 383 -127 538 -101 101 17 146 64 100 106 -21 19
-56 23 -104 11 l-28 -7 36 35 c32 30 37 40 34 72 -2 26 -11 43 -30 57 -24 18
-31 19 -71 8 -37 -11 -54 -10 -105 3 -174 44 -468 249 -532 369 -48 90 -4 93
119 9 291 -201 394 -258 563 -312 129 -42 163 -65 162 -111 -1 -18 -3 -43 -5
-54 -4 -18 1 -20 66 -19 46 0 109 11 185 32 173 49 167 45 190 118 25 84 43
222 38 297 -4 58 -16 78 -52 90 -7 2 -11 31 -11 73 0 83 31 156 79 185 37 23
31 22 66 4z m-3086 -298 c17 -12 17 -14 0 -28 -21 -17 -100 -17 -143 0 -33 14
-39 26 -18 34 26 11 144 7 161 -6z m-294 -66 c0 -27 -148 -113 -215 -125 -36
-7 -58 5 -49 27 14 38 264 131 264 98z m-3181 -10 c12 -8 12 -12 2 -25 -9 -11
-31 -16 -68 -16 -61 0 -126 26 -102 41 18 11 150 11 168 0z m850 0 c12 -8 12
-12 2 -25 -9 -11 -31 -16 -68 -16 -61 0 -126 26 -102 41 18 11 150 11 168 0z
m-1164 -81 c23 -38 -392 -129 -465 -102 l-25 9 35 21 c31 19 198 65 275 75 62
8 174 7 180 -3z m4485 -14 c0 -61 -651 -336 -1171 -494 -351 -108 -646 -171
-663 -143 -14 22 113 69 406 150 236 66 575 187 873 311 193 81 337 135 439
165 95 28 116 30 116 11z m-3710 -5 c0 -21 -205 -80 -585 -171 -554 -132 -940
-235 -1322 -355 -364 -115 -588 -174 -603 -159 -22 23 189 116 490 214 636
209 1471 420 1835 463 147 18 185 20 185 8z m1466 -55 c25 -19 9 -36 -42 -43
-65 -8 -160 36 -107 50 42 11 130 6 149 -7z m3260 -40 c164 -81 444 -274 444
-306 0 -59 -463 201 -584 329 l-30 31 31 0 c16 0 79 -24 139 -54z m-6660 -198
c11 -17 -37 -53 -103 -78 -75 -30 -223 -40 -223 -17 0 31 88 76 195 100 42 10
124 7 131 -5z m-465 -162 c-49 -53 -219 -122 -242 -99 -5 5 -7 16 -4 25 13 33
164 96 234 97 l34 1 -22 -24z m6968 -115 c123 -38 251 -133 251 -185 0 -62
-51 -60 -188 9 -151 75 -219 144 -180 183 17 17 47 15 117 -7z m-7369 -77
c-68 -69 -133 -95 -147 -58 -13 34 97 102 167 103 23 1 21 -2 -20 -45z m4499
-23 c22 -14 5 -39 -32 -46 -34 -7 -99 6 -127 25 -13 9 -13 11 0 20 19 12 140
13 159 1z m-4379 -99 c0 -15 -174 -122 -310 -191 -195 -99 -315 -144 -294
-110 22 36 327 205 499 276 82 34 105 39 105 25z m10148 -67 c17 -37 15 -172
-4 -236 -19 -65 -58 -119 -85 -119 -64 0 -78 52 -26 95 58 49 70 97 45 189 -9
34 -9 51 0 70 16 35 55 35 70 1z m-6115 -20 c164 -25 312 -62 562 -140 333
-105 636 -188 836 -230 271 -57 416 -114 600 -236 124 -83 301 -260 396 -399
132 -192 312 -363 472 -450 133 -71 227 -163 334 -325 107 -163 245 -461 348
-755 31 -90 38 -99 114 -175 91 -92 197 -176 370 -295 401 -277 630 -481 715
-641 30 -56 32 -67 28 -128 -7 -82 -53 -209 -158 -431 -144 -303 -157 -419
-80 -716 77 -298 218 -575 406 -799 197 -234 198 -458 2 -640 -79 -73 -177
-125 -348 -183 -469 -161 -855 -377 -1086 -607 -215 -213 -352 -474 -428 -815
-39 -176 -49 -312 -43 -568 5 -231 21 -373 68 -602 44 -211 24 -306 -81 -404
-71 -65 -223 -145 -410 -214 -572 -211 -1210 -331 -2100 -392 -248 -18 -1053
-24 -1325 -11 -938 45 -2034 173 -2277 264 -103 39 -521 133 -1312 293 -743
150 -1190 254 -1584 369 -609 176 -1022 372 -1255 594 -187 179 -251 311 -318
656 -93 484 -367 891 -714 1060 -364 178 -772 72 -961 -251 -37 -62 -63 -147
-74 -243 -24 -200 -57 -227 -235 -196 -157 28 -348 115 -498 229 -103 77 -141
133 -133 198 7 65 57 181 123 285 147 231 222 370 223 411 1 45 -68 -25 -188
-193 -47 -66 -122 -156 -166 -200 -113 -112 -176 -135 -176 -63 0 48 43 132
176 345 188 299 255 449 211 466 -26 10 -55 -23 -97 -112 -78 -161 -251 -403
-367 -511 -56 -53 -69 -61 -92 -55 -65 16 -124 116 -125 210 0 103 52 182 283
430 153 163 219 265 174 265 -56 0 -215 -155 -408 -398 -103 -130 -131 -160
-141 -150 -27 28 -183 349 -212 438 -86 257 -83 453 9 632 62 120 203 259 354
347 61 35 135 80 165 99 79 50 238 214 295 305 113 178 156 221 232 233 81 12
372 -46 422 -84 41 -31 35 -82 -23 -177 -80 -132 -103 -215 -60 -215 24 0 99
76 172 175 65 87 123 134 164 135 10 0 28 -10 39 -21 34 -34 23 -133 -25 -229
-48 -96 -114 -188 -169 -236 -24 -22 -49 -49 -56 -62 -16 -30 -5 -62 22 -62
32 0 151 127 241 258 131 190 232 283 291 268 33 -8 41 -45 27 -128 -21 -121
-109 -269 -272 -458 -87 -101 -127 -167 -117 -195 24 -61 223 126 364 342 79
121 125 223 132 296 8 73 15 87 44 87 30 0 154 -60 194 -94 56 -47 49 -78 -58
-247 -51 -79 -148 -234 -217 -344 -69 -110 -132 -211 -141 -225 -24 -38 76 46
184 155 102 101 187 223 270 383 69 134 145 239 181 248 59 15 89 -69 73 -201
-16 -126 -37 -191 -153 -472 -53 -128 -71 -217 -41 -212 28 6 112 155 218 389
97 215 197 394 229 414 27 16 71 -5 91 -44 15 -29 18 -52 14 -130 -6 -123 -33
-205 -169 -510 -111 -247 -145 -337 -133 -348 4 -4 29 18 56 48 134 149 238
358 320 644 77 267 108 295 238 219 108 -64 120 -109 77 -288 -51 -208 -149
-457 -251 -635 -32 -56 -59 -117 -62 -140 -5 -37 -4 -40 19 -40 48 0 141 130
234 326 109 229 161 392 175 548 13 147 31 178 97 161 45 -11 79 -43 102 -97
20 -45 24 -69 23 -158 0 -58 -8 -139 -17 -180 -34 -158 -124 -395 -211 -555
-55 -102 -160 -330 -176 -384 -51 -169 159 111 319 426 123 243 161 349 178
493 15 134 43 228 82 285 41 59 63 57 93 -6 22 -48 24 -65 23 -178 -3 -265
-112 -629 -298 -998 -93 -184 -126 -267 -126 -320 0 -39 19 -44 51 -12 83 83
253 440 369 776 76 218 100 321 111 464 12 176 44 259 97 259 55 0 92 -62 92
-154 0 -256 -145 -815 -295 -1135 -104 -224 -147 -366 -114 -386 19 -13 49 28
113 154 133 263 276 668 346 986 50 225 104 397 136 434 l23 26 20 -20 c91
-90 29 -611 -139 -1175 -90 -300 -127 -480 -100 -480 28 0 97 173 176 440 116
391 172 654 185 869 5 85 14 172 20 194 14 52 50 87 89 87 45 0 66 -14 83 -57
69 -177 -22 -673 -274 -1481 -33 -106 -59 -200 -57 -210 6 -24 70 79 114 180
110 256 238 681 304 1008 12 58 25 169 30 247 13 194 39 255 96 219 33 -23 70
-110 95 -227 19 -89 22 -135 23 -319 0 -484 -117 -949 -311 -1232 -76 -110
-107 -179 -89 -196 23 -23 90 13 151 81 159 175 288 619 325 1115 27 372 32
433 46 512 17 102 38 161 64 185 20 18 21 17 47 -6 36 -34 111 -194 130 -281
34 -153 19 -460 -47 -976 -32 -251 -35 -297 -20 -287 25 16 146 471 186 705
34 195 42 410 20 546 -22 136 -21 210 1 218 25 10 140 -51 189 -100 52 -52 89
-121 116 -222 18 -66 22 -106 22 -282 1 -219 -7 -301 -55 -550 -38 -193 -84
-379 -155 -624 -30 -103 -53 -190 -50 -193 9 -9 68 82 103 156 96 208 205 628
252 972 31 227 34 320 17 443 -24 163 -22 221 9 251 28 29 36 30 76 9 42 -21
84 -114 106 -234 12 -70 17 -148 17 -295 0 -218 -8 -298 -59 -600 -37 -220
-60 -418 -51 -441 37 -96 142 258 205 692 45 307 49 437 21 651 -16 122 -6
147 63 151 96 6 159 -47 185 -158 51 -211 38 -785 -24 -1072 -18 -86 -30 -244
-20 -282 9 -35 22 -33 46 7 94 151 206 915 171 1154 -8 48 -16 125 -18 169 -5
77 -4 82 18 98 29 20 71 21 109 1 37 -19 85 -116 104 -210 36 -174 41 -264 37
-655 -7 -628 -6 -893 2 -922 24 -87 54 29 77 297 6 66 15 331 20 590 17 798
39 903 141 678 90 -196 141 -607 119 -951 -6 -92 -15 -214 -20 -272 -20 -218
-2 -173 69 170 62 293 41 792 -43 1056 -32 99 -32 108 0 133 32 26 130 29 173
6 68 -35 110 -121 138 -283 22 -128 22 -607 -1 -962 -16 -248 -21 -458 -11
-448 9 9 65 355 80 493 21 203 27 358 29 737 1 325 2 337 22 365 68 91 205 15
248 -138 35 -124 41 -210 40 -559 0 -471 -29 -729 -114 -1041 -65 -235 -84
-359 -58 -375 16 -10 45 28 89 121 46 96 64 162 84 309 28 211 35 343 45 861
15 786 26 860 127 860 57 0 90 -27 124 -99 69 -146 107 -551 109 -1151 1 -104
5 -236 9 -292 11 -154 25 -152 60 5 65 293 49 897 -35 1269 -29 131 -26 159
22 179 74 31 174 7 219 -52 57 -75 114 -250 137 -424 18 -128 18 -887 0 -1065
-25 -255 -49 -394 -96 -547 -8 -26 -11 -50 -7 -52 12 -8 74 41 90 72 98 185
162 1158 110 1647 -6 55 -23 138 -37 185 -61 206 -61 221 -10 239 35 12 153
14 246 5 44 -5 63 -11 66 -23 7 -21 39 -513 85 -1291 l38 -635 -1 835 c-1 846
3 967 37 1069 38 112 132 24 191 -180 79 -274 110 -667 122 -1534 4 -275 8
-495 10 -490 7 22 84 780 95 935 21 297 -1 558 -75 880 -46 202 -69 347 -61
387 7 40 36 57 81 50 56 -9 90 -42 133 -126 90 -182 123 -445 141 -1141 11
-385 17 -471 38 -492 13 -13 28 19 45 102 16 74 15 638 -1 845 -19 241 -50
506 -74 624 -11 58 -21 135 -22 169 -1 55 2 66 21 82 13 10 32 16 43 13 49
-13 137 -132 186 -253 59 -145 120 -478 149 -805 18 -216 51 -462 68 -512 7
-20 17 -38 24 -40 59 -20 41 567 -31 972 -22 123 -33 166 -91 360 -64 212 -74
263 -54 276 22 14 87 11 118 -6 125 -64 281 -441 386 -930 15 -66 55 -281 90
-478 35 -197 66 -361 69 -364 3 -3 3 10 1 28 -3 19 -14 160 -25 314 -25 338
-49 542 -91 752 -29 150 -53 229 -132 443 -63 171 -59 230 18 244 126 24 215
-114 289 -445 54 -246 82 -501 121 -1139 14 -228 27 -422 28 -430 9 -41 19
678 14 980 -7 458 -22 563 -124 821 -80 205 -76 214 81 214 126 0 161 -18 201
-99 61 -125 158 -634 235 -1236 36 -288 49 -368 60 -375 17 -10 23 91 17 265
-12 325 -75 774 -163 1155 -53 229 -50 276 21 291 104 20 208 -178 279 -530
55 -272 82 -510 126 -1140 16 -230 31 -421 33 -423 3 -2 7 169 11 379 12 635
-18 943 -140 1430 -36 146 -64 279 -64 308 l0 50 39 0 c51 0 78 -32 142 -165
101 -212 201 -563 299 -1050 62 -312 86 -406 108 -413 46 -15 -47 577 -169
1061 -49 200 -98 355 -135 437 -20 43 -34 88 -32 101 3 22 7 24 55 22 104 -4
187 -76 268 -233 64 -126 113 -262 194 -544 90 -312 117 -374 138 -320 17 45
-48 347 -126 586 -73 222 -101 332 -108 424 -7 103 0 134 30 134 72 0 235
-296 377 -685 73 -202 117 -371 159 -615 35 -207 39 -221 46 -177 4 27 5 128
3 225 -9 287 -58 481 -244 942 -62 158 -114 300 -114 318 0 30 2 32 35 32 45
0 96 -51 166 -167 162 -268 292 -621 411 -1118 36 -150 43 -173 46 -137 5 66
-24 299 -54 431 -50 226 -110 398 -243 705 -88 202 -97 286 -30 286 133 0 302
-247 418 -609 22 -69 57 -179 77 -243 49 -159 74 -179 74 -59 0 123 -62 333
-172 580 -86 193 -118 272 -118 289 0 22 518 12 605 -12 112 -31 166 -79 272
-236 52 -78 79 -107 89 -97 4 3 -17 73 -45 155 -54 157 -59 182 -39 182 7 0
83 -73 170 -162 112 -117 158 -159 163 -148 3 9 -13 80 -35 159 -22 79 -39
145 -37 147 2 2 64 -49 138 -113 141 -122 209 -176 216 -169 3 2 -12 26 -33
53 -45 58 -73 119 -74 156 0 15 2 27 5 27 23 0 74 -43 159 -135 61 -66 105
-105 115 -103 11 2 18 20 23 62 9 70 23 90 57 82 95 -20 91 -20 91 8 0 61 -48
109 -167 169 -96 49 -271 84 -553 111 -349 34 -539 41 -1160 41 -635 0 -766
-5 -1210 -45 -664 -60 -1500 -84 -2880 -85 -1107 0 -1290 5 -1371 39 -52 21
-157 35 -360 46 -283 15 -653 75 -1151 186 -386 86 -637 158 -724 209 -43 25
-57 45 -31 45 6 0 53 -10 102 -21 1148 -258 2539 -389 4145 -389 797 0 1421
25 2210 90 446 36 676 44 1265 44 748 0 1086 -21 1375 -85 170 -38 249 -46
273 -27 18 13 17 15 -2 39 -57 73 -342 133 -806 171 -208 17 -1008 17 -1250 0
-1123 -77 -4521 -103 -5335 -41 -861 66 -3216 635 -4074 986 -859 350 -2690
890 -3486 1029 -164 28 -380 43 -380 26 0 -23 210 -78 579 -152 300 -60 487
-106 831 -205 1108 -319 2651 -860 2780 -974 l25 -22 -45 6 c-148 20 -509 113
-1245 320 -767 216 -1496 413 -1965 530 -421 105 -955 263 -1157 341 -249 96
-460 216 -503 287 -31 50 -27 114 11 170 85 129 373 367 584 483 l70 39 215 0
c216 -1 349 -10 665 -45 391 -44 501 -53 720 -56 127 -1 233 -3 236 -3 16 -2
18 -36 3 -58 -51 -79 -341 -133 -849 -159 -76 -4 -122 -10 -110 -14 36 -14
398 -37 940 -60 733 -32 1453 -80 1700 -115 168 -23 289 -29 314 -15 28 15 20
23 -44 44 -128 41 -451 95 -995 166 -212 28 -392 52 -400 55 -28 8 945 -5
1095 -15 259 -18 368 -36 379 -65 8 -22 49 -18 115 9 88 37 176 49 310 42 308
-17 362 -18 446 -7 163 22 318 84 275 111 -69 43 -343 52 -1360 45 -610 -5
-955 -3 -1082 4 -270 16 -294 30 -92 55 157 20 416 34 754 41 595 13 1160 55
2060 155 1057 118 1632 220 1488 265 -41 14 -335 -18 -884 -95 -540 -76 -995
-122 -1629 -165 -116 -8 -1028 -45 -1031 -42 -2 2 200 72 449 156 546 186 787
274 1159 424 486 197 854 359 1328 584 1239 590 1854 839 3010 1221 698 231
1096 331 1444 362 122 11 388 3 509 -15z m5282 -119 c69 -29 114 -106 63 -106
-27 0 -125 44 -150 67 -47 42 14 69 87 39z m-10090 -16 c-19 -31 -428 -317
-705 -493 -190 -121 -360 -214 -360 -199 0 23 241 211 465 365 278 190 636
385 600 327z m11036 -391 c94 -60 156 -149 132 -188 -21 -34 -81 -44 -183 -31
-208 28 -220 26 -220 -37 0 -46 53 -203 92 -273 34 -63 85 -120 106 -120 16 0
14 23 -8 101 -17 60 -8 93 30 109 24 10 40 10 71 1 46 -14 68 -44 80 -108 14
-72 44 -121 124 -203 76 -77 111 -136 100 -171 -15 -47 -131 -67 -176 -30 -21
17 -22 22 -11 45 26 57 4 86 -64 86 -89 0 -127 -59 -126 -195 0 -93 18 -151
54 -178 24 -18 27 -18 57 -3 19 10 33 27 37 44 16 74 51 111 94 97 29 -9 53
-74 61 -165 14 -171 41 -221 151 -284 77 -43 102 -123 56 -181 -31 -40 -77
-55 -167 -55 -116 0 -117 8 -6 94 36 27 37 30 20 43 -24 17 -171 17 -205 0
-45 -23 -56 -57 -42 -135 14 -87 75 -289 108 -362 45 -99 102 -137 126 -84 9
20 9 36 -2 72 -31 109 -23 140 29 121 51 -20 114 -84 217 -222 57 -77 103
-141 102 -142 -6 -5 -344 25 -408 36 -127 21 -168 66 -189 207 -6 39 -18 90
-27 112 -22 56 -75 100 -120 100 -41 0 -74 15 -74 34 0 7 13 31 30 54 16 22
32 52 35 65 10 40 -36 82 -159 144 -286 142 -411 238 -467 357 -27 57 -31 77
-31 149 0 110 33 208 119 362 126 226 173 358 173 487 0 105 8 111 167 127 50
5 106 17 125 26 42 22 78 55 78 72 0 16 36 53 52 53 6 0 33 -14 59 -31z
m-9421 -57 c0 -16 -36 -42 -115 -83 -57 -29 -88 -39 -114 -37 -78 7 -21 61
108 103 79 25 121 31 121 17z m9962 -252 c100 -28 127 -160 52 -250 -43 -51
-115 -76 -150 -52 -18 12 -34 49 -34 80 0 16 -8 40 -19 53 -17 22 -21 22 -59
10 -50 -17 -72 -9 -72 23 0 52 84 118 173 136 59 11 67 11 109 0z m746 -422
c28 -31 39 -62 47 -143 12 -110 38 -166 116 -250 37 -41 71 -86 75 -101 10
-40 -14 -75 -70 -103 -41 -21 -63 -24 -150 -24 -85 -1 -108 3 -143 21 -76 40
-65 100 26 151 59 33 38 40 -67 25 -103 -16 -132 -17 -151 -5 -24 15 5 40 97
82 100 46 104 61 32 113 -69 49 -72 73 -24 143 72 105 162 143 212 91z m-589
-34 c67 -20 123 -74 140 -137 14 -50 11 -132 -10 -263 -19 -120 -4 -176 66
-255 62 -70 91 -136 106 -247 16 -118 -3 -235 -48 -284 -52 -58 -173 22 -190
127 -6 39 16 75 48 75 67 0 63 30 -11 82 -33 23 -60 48 -60 55 0 7 18 16 42
20 46 7 98 49 98 78 0 44 -92 85 -193 85 -80 1 -172 63 -165 111 2 16 18 32
46 47 63 35 59 59 -33 165 -41 48 -75 92 -75 97 0 20 35 40 127 70 131 43 138
47 121 67 -7 9 -46 31 -87 50 -83 37 -103 51 -95 64 9 14 116 10 173 -7z
m1079 -44 c76 -85 162 -274 170 -371 4 -52 2 -57 -23 -73 -57 -38 -143 -33
-171 8 -14 23 -14 30 1 84 21 74 18 91 -20 112 -45 25 -56 54 -53 140 3 80 24
130 54 130 9 0 28 -14 42 -30z m402 -157 c39 -35 50 -91 26 -128 -26 -40 -60
-33 -90 18 -27 47 -45 105 -39 125 8 23 71 14 103 -15z m-240 -433 c27 -27 25
-46 -6 -77 -23 -23 -31 -25 -94 -21 -49 2 -74 9 -89 22 -20 18 -20 21 -5 37
49 54 157 76 194 39z m-396 -153 c48 -64 15 -178 -52 -185 -27 -3 -35 2 -52
30 -12 20 -20 50 -20 78 0 28 8 58 20 78 17 28 25 33 52 30 20 -2 38 -13 52
-31z m-2156 -749 c39 -39 -19 -129 -109 -167 -60 -26 -143 -38 -153 -23 -16
26 62 118 149 176 42 28 93 34 113 14z m-17522 -180 c56 -61 55 -108 -2 -108
-48 0 -74 29 -74 83 0 71 27 80 76 25z m18034 1 c-86 -58 -142 -82 -207 -87
-59 -4 -123 10 -123 28 0 4 37 12 83 19 45 7 123 25 172 41 117 36 129 36 75
-1z m545 12 c18 -30 -154 -49 -203 -23 -40 23 -13 32 93 32 57 0 106 -4 110
-9z m-1750 -12 c26 -40 -151 -119 -232 -104 -96 18 46 114 169 115 31 0 60 -5
63 -11z m1260 -186 c-60 -56 -183 -137 -229 -153 -23 -7 -41 -7 -60 -1 -66 26
-4 78 176 147 73 29 140 52 148 53 8 0 -7 -21 -35 -46z m-872 -544 c54 -18 78
-21 185 -17 86 4 122 2 119 -6 -11 -37 -178 -117 -271 -130 -96 -13 -177 78
-136 155 13 24 26 24 103 -2z m-459 -456 c-1 -53 -36 -109 -85 -133 -21 -11
-41 -20 -44 -20 -13 0 -3 33 26 82 72 123 105 145 103 71z m140 -110 c-45 -70
-258 -355 -297 -398 -75 -83 -95 -22 -26 82 32 50 320 343 337 343 2 0 -4 -12
-14 -27z m-11414 -766 c428 -110 970 -290 970 -324 0 -13 -136 7 -288 43 -323
75 -921 261 -1031 320 l-46 25 90 -5 c64 -3 152 -20 305 -59z"/>
<path d="M9165 10473 c-307 -78 -875 -322 -875 -378 0 -53 175 -8 330 85 78
47 167 85 355 150 208 72 295 114 295 141 0 9 -69 11 -105 2z"/>
<path d="M16700 10573 c-28 -10 -60 -47 -60 -69 0 -54 71 -57 169 -7 62 32 75
62 31 74 -30 8 -119 10 -140 2z"/>
<path d="M17091 9554 c-26 -33 -34 -78 -29 -159 6 -98 21 -107 149 -90 75 10
144 -13 217 -73 91 -74 134 -88 166 -56 37 37 -5 167 -66 204 -40 24 -60 25
-115 4 -51 -20 -68 -11 -78 42 -8 43 -25 51 -77 33 -51 -16 -71 -5 -79 46 -6
35 -38 75 -59 75 -5 0 -18 -12 -29 -26z"/>
<path d="M17245 9250 c-43 -18 -101 -100 -130 -186 -30 -90 3 -108 82 -45 58
46 110 119 119 169 6 29 3 39 -16 54 -25 20 -26 20 -55 8z"/>
<path d="M17344 8992 c-64 -42 -123 -104 -148 -157 -57 -120 51 -91 181 49 62
65 81 101 69 131 -9 24 -39 17 -102 -23z"/>
<path d="M17546 7985 c-69 -28 -112 -66 -103 -89 7 -19 49 -21 80 -5 26 13
117 100 117 111 0 14 -34 8 -94 -17z"/>
<path d="M17610 7007 c-54 -27 -57 -90 -5 -103 44 -11 195 56 195 87 0 28
-142 40 -190 16z"/>
<path d="M10110 9125 c-250 -51 -579 -142 -692 -192 -233 -103 291 -7 696 128
131 44 176 64 176 79 0 15 -54 11 -180 -15z"/>
<path d="M13595 9079 c-38 -10 -164 -37 -280 -59 -349 -68 -458 -100 -431
-127 16 -16 261 -6 391 16 179 30 359 76 425 109 44 22 56 32 58 55 3 26 2 27
-45 26 -26 0 -79 -9 -118 -20z"/>
<path d="M13155 8770 c-962 -101 -1535 -188 -1535 -232 0 -52 1938 165 1995
223 7 7 4 15 -9 25 -29 21 -137 17 -451 -16z"/>
<path d="M8645 8479 c-121 -9 -206 -23 -300 -50 -179 -52 -112 -93 113 -70
183 19 496 91 476 111 -13 12 -175 17 -289 9z"/>
<path d="M13150 8444 c-338 -36 -745 -105 -825 -138 -36 -16 -38 -18 -21 -28
85 -48 1053 105 1074 170 5 15 -59 15 -228 -4z"/>
<path d="M7935 8323 c-129 -17 -643 -107 -990 -173 -231 -44 -555 -105 -720
-135 -326 -59 -410 -80 -399 -97 10 -15 260 -3 444 21 573 77 1790 336 1790
381 0 10 -64 11 -125 3z"/>
<path d="M14888 8314 c-72 -22 -116 -94 -68 -109 11 -4 44 -1 73 5 67 14 262
92 262 105 0 17 -213 16 -267 -1z"/>
<path d="M9274 8154 c-208 -25 -402 -73 -411 -101 -15 -45 427 -6 639 57 115
35 101 60 -32 59 -47 -1 -135 -7 -196 -15z"/>
<path d="M15060 8093 c-190 -22 -855 -202 -1088 -294 -354 -140 142 -61 727
116 291 88 450 152 436 175 -6 10 -11 10 -75 3z"/>
<path d="M8205 8003 c-22 -2 -44 -8 -49 -13 -18 -17 109 -32 248 -28 137 3
195 15 165 33 -14 9 -301 16 -364 8z"/>
<path d="M15123 7825 c-109 -25 -319 -86 -663 -191 -262 -80 -547 -154 -598
-155 -20 -1 -48 -4 -62 -9 l-25 -7 30 -14 c45 -20 194 -15 305 10 529 121
1190 333 1190 381 0 16 -68 10 -177 -15z"/>
<path d="M8805 7689 c-154 -16 -553 -48 -808 -65 -55 -3 -95 -10 -90 -14 17
-17 280 -33 458 -27 204 6 334 26 560 86 177 46 156 50 -120 20z"/>
<path d="M6780 7539 c-140 -11 -306 -34 -386 -55 -128 -33 -165 -73 -129 -140
20 -38 80 -78 133 -89 38 -8 112 3 112 16 0 5 -18 22 -40 37 -56 39 -57 50 -7
72 80 36 365 73 907 120 134 12 249 25 255 28 5 4 -12 10 -40 14 -71 9 -667 7
-805 -3z"/>
<path d="M15030 7444 c-197 -36 -799 -203 -881 -244 -19 -10 -41 -26 -48 -34
-16 -20 -7 -46 16 -46 9 0 193 50 408 111 471 134 625 188 625 219 0 13 -26
11 -120 -6z"/>
<path d="M13485 7429 c-134 -18 -261 -56 -244 -74 13 -12 120 -25 213 -25 140
0 246 28 246 66 0 32 -101 48 -215 33z"/>
<path d="M7433 7210 c-374 -6 -418 -13 -243 -39 326 -49 1818 -82 2815 -63
599 12 850 23 1020 42 141 17 133 27 -29 40 -314 26 -2473 38 -3563 20z"/>
<path d="M5285 7013 c-60 -5 -86 -13 -80 -22 9 -15 208 -58 490 -105 354 -59
781 -123 2030 -305 567 -83 1108 -162 1203 -176 437 -64 1117 -105 2092 -125
756 -16 1405 9 1363 51 -21 21 -296 30 -1108 39 -866 9 -1147 17 -1570 45
-303 21 -348 26 -765 90 -195 30 -656 98 -1025 150 -711 102 -1230 182 -1590
245 -447 79 -889 127 -1040 113z"/>
<path d="M2170 6983 c0 -5 29 -18 65 -28 36 -9 77 -27 91 -38 l27 -21 -22 -17
c-42 -35 -122 -42 -376 -35 -132 3 -278 8 -325 11 -73 4 -53 -1 145 -39 450
-86 794 -188 1750 -518 1709 -591 2183 -730 3300 -973 495 -108 1035 -229
1376 -310 494 -117 925 -160 1894 -186 496 -13 2496 -7 3495 12 682 12 2104 6
2285 -10 61 -5 168 -17 239 -25 128 -16 180 -13 173 7 -2 6 -24 25 -50 43 -82
57 -222 77 -632 94 -334 14 -2397 13 -4040 -1 -1831 -16 -2286 -1 -2937 91
-401 58 -719 124 -1478 310 -515 126 -754 180 -1020 230 -340 64 -803 207
-1785 550 -572 200 -1156 398 -1500 509 -137 45 -275 93 -305 107 -47 23 -52
27 -35 34 11 5 37 9 58 9 22 1 143 12 270 27 303 33 329 30 155 -20 -198 -57
-202 -62 -55 -76 226 -22 2103 -432 3242 -709 481 -117 781 -170 1359 -241
891 -109 1964 -185 3291 -232 452 -16 1856 -16 2240 0 844 35 1030 43 1144 52
68 6 129 10 134 10 7 0 8 3 1 10 -18 18 -456 30 -1134 30 -698 0 -1152 -10
-1420 -32 -280 -23 -620 -13 -1660 47 -2287 134 -3005 238 -5335 769 -740 168
-1257 276 -1401 291 -90 10 -159 60 -108 79 48 18 238 -1 544 -54 709 -124
2270 -334 3790 -510 821 -94 1361 -166 1625 -215 183 -33 354 -29 314 10 -68
65 -875 190 -2134 330 -1340 149 -2902 358 -3625 485 -124 21 -277 46 -340 54
-417 56 -1290 116 -1290 89z"/>
<path d="M12490 6909 c-63 -5 -221 -20 -350 -34 -281 -29 -432 -41 -725 -55
-121 -5 -256 -12 -300 -15 -44 -3 -494 -10 -1000 -15 -893 -9 -1045 -14 -1045
-31 0 -21 149 -44 365 -59 202 -13 1104 -13 1460 0 804 29 1384 78 1753 146
235 43 264 75 67 72 -60 0 -162 -5 -225 -9z"/>
<path d="M15984 6746 c-97 -25 -142 -45 -163 -70 -10 -12 -9 -17 8 -25 68 -37
406 46 406 99 0 26 -143 24 -251 -4z"/>
<path d="M16160 6549 c-69 -5 -240 -21 -380 -34 -587 -59 -996 -133 -1072
-194 l-23 -19 29 -8 c46 -11 207 3 391 35 239 42 503 75 915 116 195 20 384
40 420 45 191 29 226 41 175 60 -31 12 -276 11 -455 -1z"/>
<path d="M15735 6209 c-379 -22 -773 -58 -879 -79 -66 -14 -139 -47 -131 -60
9 -15 202 -12 400 5 669 59 1105 113 1105 136 0 11 -297 9 -495 -2z"/>
<path d="M4925 6130 c-17 -27 46 -79 120 -99 47 -13 115 2 115 24 0 23 -39 43
-125 65 -89 23 -101 24 -110 10z"/>
<path d="M5265 6010 c-3 -5 7 -16 22 -23 179 -92 1928 -530 2698 -676 613
-116 893 -138 883 -68 -5 37 -112 66 -289 77 -314 20 -883 133 -1864 371 -834
202 -1381 329 -1421 329 -12 0 -25 -4 -29 -10z"/>
<path d="M15835 6009 c-191 -18 -442 -72 -494 -106 l-25 -16 24 -9 c38 -14
407 19 635 58 174 29 233 56 164 75 -33 9 -194 8 -304 -2z"/>
<path d="M10017 5945 c418 -67 520 -81 812 -105 392 -32 576 -41 1026 -47 517
-7 776 10 762 50 -13 39 -213 55 -797 67 -688 14 -1052 29 -1724 70 -176 11
-340 20 -365 19 -25 0 103 -25 286 -54z"/>
<path d="M2468 5807 c-44 -34 -60 -73 -36 -88 7 -5 31 -9 54 -9 49 0 84 31 84
76 0 62 -38 70 -102 21z"/>
<path d="M9048 5251 c-63 -9 -78 -24 -46 -45 62 -41 249 -53 1038 -67 789 -14
4775 -6 5210 10 530 20 650 40 384 64 -161 14 -2012 16 -3929 3 -1322 -8
-1971 -2 -2205 23 -125 13 -398 21 -452 12z"/>
<path d="M1455 4869 c-25 -23 -45 -48 -45 -55 0 -33 88 -46 127 -19 26 18 38
67 23 94 -17 33 -55 26 -105 -20z"/>
<path d="M1794 4803 c-48 -36 -189 -153 -245 -203 -39 -34 -89 -100 -89 -116
0 -21 60 -17 124 6 86 33 175 130 245 267 48 96 42 104 -35 46z"/>
<path d="M15103 4303 c-13 -34 50 -198 177 -458 72 -145 103 -195 116 -182 30
30 -149 504 -236 627 -24 33 -47 39 -57 13z"/>
<path d="M15412 4282 c5 -32 170 -485 214 -587 19 -43 17 -30 -15 160 -46 262
-94 398 -160 444 -40 29 -44 27 -39 -17z"/>
<path d="M2348 3478 c-197 -232 -242 -294 -218 -301 3 0 27 5 53 12 82 24 175
134 241 288 69 161 60 161 -76 1z"/>
<path d="M2553 3339 c-72 -46 -75 -92 -8 -105 69 -13 123 47 99 110 -8 22 -53
20 -91 -5z"/>
<path d="M9080 2351 c-13 -25 -13 -141 0 -161 18 -28 43 13 48 78 6 82 -22
130 -48 83z"/>
<path d="M5120 2343 c-38 -26 -58 -54 -72 -96 -10 -34 -9 -40 9 -59 20 -19 22
-20 57 -3 61 29 107 130 74 163 -17 17 -39 15 -68 -5z"/>
<path d="M5380 2248 c-24 -39 -76 -182 -90 -245 -6 -27 -7 -51 -1 -60 8 -14
12 -13 36 13 57 60 114 229 100 294 -8 39 -21 38 -45 -2z"/>
<path d="M5610 2168 c-31 -52 -81 -198 -87 -255 -5 -43 -3 -53 9 -53 50 0 144
237 124 313 -9 36 -22 34 -46 -5z"/>
<path d="M6312 1943 c-64 -90 -126 -383 -81 -383 28 0 107 226 116 331 6 76
-5 93 -35 52z"/>
<path d="M5741 1843 c-46 -48 -151 -196 -151 -214 0 -33 94 32 167 115 43 49
69 106 59 131 -9 25 -28 17 -75 -32z"/>
<path d="M6451 1553 c-36 -43 -95 -152 -87 -160 10 -10 55 7 87 34 37 32 59
78 59 128 0 46 -20 46 -59 -2z"/>
<path d="M6985 1533 c-40 -55 -155 -276 -155 -298 0 -8 4 -15 10 -15 19 0 130
146 170 223 64 125 47 187 -25 90z"/>
<path d="M12336 1128 c-8 -32 -6 -308 4 -338 l7 -25 13 30 c15 34 20 281 7
328 -9 33 -23 35 -31 5z"/>
<path d="M13796 1008 c-10 -37 -7 -165 4 -194 14 -37 27 -22 42 48 9 44 9 68
-1 112 -13 58 -34 74 -45 34z"/>
<path d="M12709 953 c-13 -34 -7 -149 8 -164 15 -15 42 36 49 93 8 72 -35 127
-57 71z"/>
<path d="M11790 903 c-52 -136 -100 -374 -81 -402 29 -45 95 118 121 299 11
74 5 160 -10 160 -5 0 -18 -26 -30 -57z"/>
<path d="M12037 864 c-18 -36 -83 -253 -97 -322 -5 -29 -7 -59 -3 -67 5 -14 9
-13 30 7 58 54 103 190 103 313 0 86 -12 110 -33 69z"/>
<path d="M12953 865 c-13 -32 -10 -252 4 -266 40 -40 57 214 18 267 -13 18
-14 18 -22 -1z"/>
<path d="M13186 863 c-23 -58 -14 -262 11 -270 14 -5 33 80 33 150 0 85 -28
162 -44 120z"/>
<path d="M11483 819 c-26 -33 -24 -177 3 -186 16 -5 44 70 44 116 0 47 -30 91
-47 70z"/>
<path d="M18265 8378 c-27 -15 -65 -50 -76 -70 -14 -26 15 -48 66 -48 35 0 48
5 64 26 48 62 10 127 -54 92z"/>
</g>
</svg>
